<svg xmlns="http://www.w3.org/2000/svg" fill="none" viewBox="0 0 916 916"><path fill="url(#a)" fill-opacity=".1" d="M458 0c48 0 96 8 142 22L458 458V0Z"/><path fill="url(#b)" fill-opacity=".1" d="M727 87c39 29 73 63 102 102L458 458 727 87Z"/><path fill="url(#c)" fill-opacity=".1" d="M894 316c14 46 22 94 22 142H458l436-142Z"/><path fill="url(#d)" fill-opacity=".1" d="M894 600c-15 45-37 88-65 127L458 458l436 142Z"/><path fill="url(#e)" fill-opacity=".1" d="M727 829c-39 28-82 50-127 65L458 458l269 371Z"/><path fill="url(#f)" fill-opacity=".1" d="M458 916c-48 0-96-8-142-22l142-436v458Z"/><path fill="url(#g)" fill-opacity=".1" d="M189 829c-39-29-73-63-102-102l371-269-269 371Z"/><path fill="url(#h)" fill-opacity=".1" d="M22 600C8 554 0 506 0 458h458L22 600Z"/><path fill="url(#i)" fill-opacity=".1" d="M22 316c15-45 37-88 65-127l371 269L22 316Z"/><path fill="url(#j)" fill-opacity=".1" d="M189 87c39-28 82-50 127-65l142 436L189 87Z"/><defs><radialGradient id="a" cx="0" cy="0" r="1" gradientTransform="rotate(90 0 458) scale(458)" gradientUnits="userSpaceOnUse"><stop stop-color="#fff"/><stop offset="1" stop-color="#fff" stop-opacity="0"/></radialGradient><radialGradient id="b" cx="0" cy="0" r="1" gradientTransform="rotate(90 0 458) scale(458)" gradientUnits="userSpaceOnUse"><stop stop-color="#fff"/><stop offset="1" stop-color="#fff" stop-opacity="0"/></radialGradient><radialGradient id="c" cx="0" cy="0" r="1" gradientTransform="rotate(90 0 458) scale(458)" gradientUnits="userSpaceOnUse"><stop stop-color="#fff"/><stop offset="1" stop-color="#fff" stop-opacity="0"/></radialGradient><radialGradient id="d" cx="0" cy="0" r="1" gradientTransform="rotate(90 0 458) scale(458)" gradientUnits="userSpaceOnUse"><stop stop-color="#fff"/><stop offset="1" stop-color="#fff" stop-opacity="0"/></radialGradient><radialGradient id="e" cx="0" cy="0" r="1" gradientTransform="rotate(90 0 458) scale(458)" gradientUnits="userSpaceOnUse"><stop stop-color="#fff"/><stop offset="1" stop-color="#fff" stop-opacity="0"/></radialGradient><radialGradient id="f" cx="0" cy="0" r="1" gradientTransform="rotate(90 0 458) scale(458)" gradientUnits="userSpaceOnUse"><stop stop-color="#fff"/><stop offset="1" stop-color="#fff" stop-opacity="0"/></radialGradient><radialGradient id="g" cx="0" cy="0" r="1" gradientTransform="rotate(90 0 458) scale(458)" gradientUnits="userSpaceOnUse"><stop stop-color="#fff"/><stop offset="1" stop-color="#fff" stop-opacity="0"/></radialGradient><radialGradient id="h" cx="0" cy="0" r="1" gradientTransform="rotate(90 0 458) scale(458)" gradientUnits="userSpaceOnUse"><stop stop-color="#fff"/><stop offset="1" stop-color="#fff" stop-opacity="0"/></radialGradient><radialGradient id="i" cx="0" cy="0" r="1" gradientTransform="rotate(90 0 458) scale(458)" gradientUnits="userSpaceOnUse"><stop stop-color="#fff"/><stop offset="1" stop-color="#fff" stop-opacity="0"/></radialGradient><radialGradient id="j" cx="0" cy="0" r="1" gradientTransform="rotate(90 0 458) scale(458)" gradientUnits="userSpaceOnUse"><stop stop-color="#fff"/><stop offset="1" stop-color="#fff" stop-opacity="0"/></radialGradient></defs></svg>